<svg width="593" height="126" viewBox="0 0 593 126" fill="none" xmlns="http://www.w3.org/2000/svg">
<mask id="path-1-outside-1_236_1963" maskUnits="userSpaceOnUse" x="154" y="20" width="439" height="98" fill="black">
<rect fill="white" x="154" y="20" width="439" height="98"/>
<path d="M161.12 93.48C159.776 93.48 158.72 93.064 157.952 92.232C157.184 91.4 156.8 90.376 156.8 89.16C156.8 88.648 156.96 88.008 157.28 87.24L181.76 29.448C182.208 28.424 182.88 27.528 183.776 26.76C184.736 25.928 185.92 25.512 187.328 25.512H188.288C189.76 25.512 190.944 25.928 191.84 26.76C192.736 27.528 193.408 28.424 193.856 29.448L218.336 87.24C218.656 88.008 218.816 88.648 218.816 89.16C218.816 90.376 218.432 91.4 217.664 92.232C216.896 93.064 215.84 93.48 214.496 93.48C212.512 93.48 211.136 92.584 210.368 90.792L204.128 75.816H171.488L165.248 90.792C164.48 92.584 163.104 93.48 161.12 93.48ZM174.848 67.848H200.768L187.808 36.648L174.848 67.848ZM254.66 93.96C250.116 93.96 245.892 92.968 241.988 90.984C238.084 88.936 234.948 86.024 232.58 82.248C230.212 78.408 229.028 73.832 229.028 68.52C229.028 63.144 230.212 58.568 232.58 54.792C234.948 51.016 238.084 48.136 241.988 46.152C245.892 44.104 250.116 43.08 254.66 43.08C258.436 43.08 261.572 43.592 264.068 44.616C266.628 45.576 268.708 46.6 270.308 47.688C271.588 48.52 272.228 49.64 272.228 51.048C272.228 51.944 271.876 52.808 271.172 53.64C270.468 54.472 269.604 54.888 268.58 54.888C267.876 54.888 267.172 54.696 266.468 54.312C264.804 53.416 263.172 52.68 261.572 52.104C259.972 51.528 257.924 51.24 255.428 51.24C249.86 51.24 245.508 52.84 242.372 56.04C239.3 59.24 237.764 63.4 237.764 68.52C237.764 73.64 239.3 77.8 242.372 81C245.508 84.2 249.86 85.8 255.428 85.8C257.924 85.8 259.972 85.512 261.572 84.936C263.172 84.296 264.804 83.56 266.468 82.728C267.172 82.344 267.876 82.152 268.58 82.152C269.604 82.152 270.468 82.568 271.172 83.4C271.876 84.232 272.228 85.096 272.228 85.992C272.228 87.4 271.588 88.52 270.308 89.352C268.708 90.376 266.628 91.4 264.068 92.424C261.572 93.448 258.436 93.96 254.66 93.96ZM297.591 93.96C294.839 93.96 292.247 93.384 289.815 92.232C287.447 91.08 285.527 89.448 284.055 87.336C282.647 85.16 281.943 82.568 281.943 79.56C281.943 75.016 283.735 71.304 287.319 68.424C290.967 65.48 296.535 64.008 304.023 64.008H315.639V63.24C315.639 58.952 314.583 55.912 312.471 54.12C310.359 52.264 307.127 51.336 302.775 51.336C300.087 51.336 297.719 51.592 295.671 52.104C293.687 52.552 291.799 53.064 290.007 53.64C289.495 53.768 289.079 53.832 288.759 53.832C287.799 53.832 286.967 53.48 286.263 52.776C285.559 52.072 285.207 51.208 285.207 50.184C285.207 48.456 286.039 47.24 287.703 46.536C289.943 45.576 292.407 44.776 295.095 44.136C297.847 43.432 300.919 43.08 304.311 43.08C308.983 43.08 312.791 44.008 315.735 45.864C318.679 47.72 320.855 50.088 322.263 52.968C323.671 55.848 324.375 58.856 324.375 61.992V89.16C324.375 90.376 323.927 91.4 323.031 92.232C322.199 93.064 321.175 93.48 319.959 93.48C318.743 93.48 317.719 93.064 316.887 92.232C316.055 91.4 315.639 90.376 315.639 89.16V86.664C313.911 88.456 311.607 90.12 308.727 91.656C305.847 93.192 302.135 93.96 297.591 93.96ZM300.855 86.28C303.863 86.28 306.679 85.544 309.303 84.072C311.927 82.6 314.039 80.936 315.639 79.08V71.016H305.175C300.695 71.016 297.143 71.592 294.519 72.744C291.959 73.896 290.679 75.848 290.679 78.6C290.679 80.648 291.383 82.44 292.791 83.976C294.263 85.512 296.951 86.28 300.855 86.28ZM361.194 93.96C357.354 93.96 353.642 92.968 350.058 90.984C346.538 89 343.626 86.12 341.322 82.344C339.082 78.568 337.962 73.96 337.962 68.52C337.962 63.08 339.082 58.472 341.322 54.696C343.626 50.92 346.538 48.04 350.058 46.056C353.642 44.072 357.354 43.08 361.194 43.08C364.586 43.08 367.626 43.72 370.314 45C373.002 46.28 375.434 48.072 377.61 50.376V26.856C377.61 25.576 378.026 24.52 378.858 23.688C379.754 22.856 380.81 22.44 382.026 22.44C383.242 22.44 384.266 22.856 385.098 23.688C385.93 24.52 386.346 25.576 386.346 26.856V89.16C386.346 90.376 385.93 91.4 385.098 92.232C384.266 93.064 383.242 93.48 382.026 93.48C380.81 93.48 379.754 93.064 378.858 92.232C378.026 91.4 377.61 90.376 377.61 89.16V86.664C375.434 88.968 373.002 90.76 370.314 92.04C367.626 93.32 364.586 93.96 361.194 93.96ZM362.442 85.8C365.578 85.8 368.426 85.128 370.986 83.784C373.546 82.376 375.754 80.648 377.61 78.6V58.44C375.754 56.392 373.546 54.696 370.986 53.352C368.426 51.944 365.578 51.24 362.442 51.24C357.898 51.24 354.122 52.712 351.114 55.656C348.17 58.536 346.698 62.824 346.698 68.52C346.698 74.152 348.17 78.44 351.114 81.384C354.122 84.328 357.898 85.8 362.442 85.8ZM425.308 93.96C417.5 93.96 411.388 91.752 406.972 87.336C402.62 82.856 400.444 76.584 400.444 68.52C400.444 64.168 401.244 60.072 402.844 56.232C404.444 52.328 406.94 49.16 410.332 46.728C413.724 44.296 418.076 43.08 423.388 43.08C428.316 43.08 432.476 44.232 435.868 46.536C439.26 48.776 441.82 51.72 443.548 55.368C445.34 59.016 446.236 62.984 446.236 67.272C446.236 68.488 445.82 69.512 444.988 70.344C444.22 71.176 443.164 71.592 441.82 71.592H409.276C409.788 75.88 411.42 79.336 414.172 81.96C416.924 84.52 420.892 85.8 426.076 85.8C428.956 85.8 431.388 85.544 433.372 85.032C435.356 84.456 437.244 83.72 439.036 82.824C439.548 82.568 440.124 82.44 440.764 82.44C441.788 82.44 442.684 82.792 443.452 83.496C444.22 84.2 444.604 85.096 444.604 86.184C444.604 86.952 444.348 87.656 443.836 88.296C443.388 88.872 442.812 89.352 442.108 89.736C439.996 90.952 437.692 91.976 435.196 92.808C432.764 93.576 429.468 93.96 425.308 93.96ZM409.276 64.488H437.596C437.404 61.16 436.54 58.472 435.004 56.424C433.532 54.376 431.74 52.872 429.628 51.912C427.516 50.952 425.436 50.472 423.388 50.472C421.34 50.472 419.26 50.952 417.148 51.912C415.036 52.872 413.244 54.376 411.772 56.424C410.3 58.472 409.468 61.16 409.276 64.488ZM464.035 93.48C462.819 93.48 461.795 93.064 460.963 92.232C460.131 91.4 459.715 90.376 459.715 89.16V47.976C459.715 46.76 460.131 45.736 460.963 44.904C461.795 44.008 462.819 43.56 464.035 43.56C465.251 43.56 466.275 44.008 467.107 44.904C468.003 45.736 468.451 46.76 468.451 47.976V51.912C469.347 50.632 470.467 49.32 471.811 47.976C473.219 46.632 474.979 45.48 477.091 44.52C479.203 43.56 481.763 43.08 484.771 43.08C488.611 43.08 491.747 44.104 494.179 46.152C496.675 48.2 498.435 50.472 499.459 52.968C500.227 51.752 501.315 50.376 502.723 48.84C504.131 47.304 505.987 45.96 508.291 44.808C510.659 43.656 513.603 43.08 517.123 43.08C520.899 43.08 523.971 44.04 526.339 45.96C528.707 47.816 530.435 50.152 531.523 52.968C532.611 55.784 533.155 58.632 533.155 61.512V89.16C533.155 90.376 532.707 91.4 531.811 92.232C530.979 93.064 529.955 93.48 528.739 93.48C527.523 93.48 526.499 93.064 525.667 92.232C524.835 91.4 524.419 90.376 524.419 89.16V63.24C524.419 59.208 523.683 56.2 522.211 54.216C520.803 52.168 518.275 51.144 514.627 51.144C512.195 51.144 510.115 51.624 508.387 52.584C506.659 53.48 505.187 54.632 503.971 56.04C502.755 57.448 501.699 58.888 500.803 60.36V89.16C500.803 90.376 500.355 91.4 499.459 92.232C498.627 93.064 497.603 93.48 496.387 93.48C495.171 93.48 494.147 93.064 493.315 92.232C492.483 91.4 492.067 90.376 492.067 89.16V63.24C492.067 59.208 491.331 56.2 489.859 54.216C488.451 52.168 485.923 51.144 482.275 51.144C479.843 51.144 477.763 51.624 476.035 52.584C474.307 53.48 472.835 54.632 471.619 56.04C470.403 57.448 469.347 58.888 468.451 60.36V89.16C468.451 90.376 468.003 91.4 467.107 92.232C466.275 93.064 465.251 93.48 464.035 93.48ZM559.86 115.56C558.708 115.56 557.716 115.144 556.884 114.312C556.116 113.48 555.732 112.488 555.732 111.336C555.732 110.76 555.828 110.248 556.02 109.8L562.26 93.768L544.212 49.8C544.148 49.544 544.052 49.256 543.924 48.936C543.86 48.616 543.828 48.296 543.828 47.976C543.828 46.76 544.244 45.736 545.076 44.904C545.908 44.008 546.932 43.56 548.148 43.56C549.044 43.56 549.844 43.816 550.548 44.328C551.316 44.84 551.86 45.48 552.18 46.248L566.964 82.92L582.036 46.44C582.42 45.544 582.932 44.84 583.572 44.328C584.276 43.816 585.108 43.56 586.068 43.56C587.284 43.56 588.308 44.008 589.14 44.904C589.972 45.736 590.388 46.76 590.388 47.976C590.388 48.552 590.292 49.096 590.1 49.608L563.892 112.584C563.508 113.416 562.996 114.12 562.356 114.696C561.716 115.272 560.884 115.56 559.86 115.56Z"/>
</mask>
<path d="M161.12 93.48C159.776 93.48 158.72 93.064 157.952 92.232C157.184 91.4 156.8 90.376 156.8 89.16C156.8 88.648 156.96 88.008 157.28 87.24L181.76 29.448C182.208 28.424 182.88 27.528 183.776 26.76C184.736 25.928 185.92 25.512 187.328 25.512H188.288C189.76 25.512 190.944 25.928 191.84 26.76C192.736 27.528 193.408 28.424 193.856 29.448L218.336 87.24C218.656 88.008 218.816 88.648 218.816 89.16C218.816 90.376 218.432 91.4 217.664 92.232C216.896 93.064 215.84 93.48 214.496 93.48C212.512 93.48 211.136 92.584 210.368 90.792L204.128 75.816H171.488L165.248 90.792C164.48 92.584 163.104 93.48 161.12 93.48ZM174.848 67.848H200.768L187.808 36.648L174.848 67.848ZM254.66 93.96C250.116 93.96 245.892 92.968 241.988 90.984C238.084 88.936 234.948 86.024 232.58 82.248C230.212 78.408 229.028 73.832 229.028 68.52C229.028 63.144 230.212 58.568 232.58 54.792C234.948 51.016 238.084 48.136 241.988 46.152C245.892 44.104 250.116 43.08 254.66 43.08C258.436 43.08 261.572 43.592 264.068 44.616C266.628 45.576 268.708 46.6 270.308 47.688C271.588 48.52 272.228 49.64 272.228 51.048C272.228 51.944 271.876 52.808 271.172 53.64C270.468 54.472 269.604 54.888 268.58 54.888C267.876 54.888 267.172 54.696 266.468 54.312C264.804 53.416 263.172 52.68 261.572 52.104C259.972 51.528 257.924 51.24 255.428 51.24C249.86 51.24 245.508 52.84 242.372 56.04C239.3 59.24 237.764 63.4 237.764 68.52C237.764 73.64 239.3 77.8 242.372 81C245.508 84.2 249.86 85.8 255.428 85.8C257.924 85.8 259.972 85.512 261.572 84.936C263.172 84.296 264.804 83.56 266.468 82.728C267.172 82.344 267.876 82.152 268.58 82.152C269.604 82.152 270.468 82.568 271.172 83.4C271.876 84.232 272.228 85.096 272.228 85.992C272.228 87.4 271.588 88.52 270.308 89.352C268.708 90.376 266.628 91.4 264.068 92.424C261.572 93.448 258.436 93.96 254.66 93.96ZM297.591 93.96C294.839 93.96 292.247 93.384 289.815 92.232C287.447 91.08 285.527 89.448 284.055 87.336C282.647 85.16 281.943 82.568 281.943 79.56C281.943 75.016 283.735 71.304 287.319 68.424C290.967 65.48 296.535 64.008 304.023 64.008H315.639V63.24C315.639 58.952 314.583 55.912 312.471 54.12C310.359 52.264 307.127 51.336 302.775 51.336C300.087 51.336 297.719 51.592 295.671 52.104C293.687 52.552 291.799 53.064 290.007 53.64C289.495 53.768 289.079 53.832 288.759 53.832C287.799 53.832 286.967 53.48 286.263 52.776C285.559 52.072 285.207 51.208 285.207 50.184C285.207 48.456 286.039 47.24 287.703 46.536C289.943 45.576 292.407 44.776 295.095 44.136C297.847 43.432 300.919 43.08 304.311 43.08C308.983 43.08 312.791 44.008 315.735 45.864C318.679 47.72 320.855 50.088 322.263 52.968C323.671 55.848 324.375 58.856 324.375 61.992V89.16C324.375 90.376 323.927 91.4 323.031 92.232C322.199 93.064 321.175 93.48 319.959 93.48C318.743 93.48 317.719 93.064 316.887 92.232C316.055 91.4 315.639 90.376 315.639 89.16V86.664C313.911 88.456 311.607 90.12 308.727 91.656C305.847 93.192 302.135 93.96 297.591 93.96ZM300.855 86.28C303.863 86.28 306.679 85.544 309.303 84.072C311.927 82.6 314.039 80.936 315.639 79.08V71.016H305.175C300.695 71.016 297.143 71.592 294.519 72.744C291.959 73.896 290.679 75.848 290.679 78.6C290.679 80.648 291.383 82.44 292.791 83.976C294.263 85.512 296.951 86.28 300.855 86.28ZM361.194 93.96C357.354 93.96 353.642 92.968 350.058 90.984C346.538 89 343.626 86.12 341.322 82.344C339.082 78.568 337.962 73.96 337.962 68.52C337.962 63.08 339.082 58.472 341.322 54.696C343.626 50.92 346.538 48.04 350.058 46.056C353.642 44.072 357.354 43.08 361.194 43.08C364.586 43.08 367.626 43.72 370.314 45C373.002 46.28 375.434 48.072 377.61 50.376V26.856C377.61 25.576 378.026 24.52 378.858 23.688C379.754 22.856 380.81 22.44 382.026 22.44C383.242 22.44 384.266 22.856 385.098 23.688C385.93 24.52 386.346 25.576 386.346 26.856V89.16C386.346 90.376 385.93 91.4 385.098 92.232C384.266 93.064 383.242 93.48 382.026 93.48C380.81 93.48 379.754 93.064 378.858 92.232C378.026 91.4 377.61 90.376 377.61 89.16V86.664C375.434 88.968 373.002 90.76 370.314 92.04C367.626 93.32 364.586 93.96 361.194 93.96ZM362.442 85.8C365.578 85.8 368.426 85.128 370.986 83.784C373.546 82.376 375.754 80.648 377.61 78.6V58.44C375.754 56.392 373.546 54.696 370.986 53.352C368.426 51.944 365.578 51.24 362.442 51.24C357.898 51.24 354.122 52.712 351.114 55.656C348.17 58.536 346.698 62.824 346.698 68.52C346.698 74.152 348.17 78.44 351.114 81.384C354.122 84.328 357.898 85.8 362.442 85.8ZM425.308 93.96C417.5 93.96 411.388 91.752 406.972 87.336C402.62 82.856 400.444 76.584 400.444 68.52C400.444 64.168 401.244 60.072 402.844 56.232C404.444 52.328 406.94 49.16 410.332 46.728C413.724 44.296 418.076 43.08 423.388 43.08C428.316 43.08 432.476 44.232 435.868 46.536C439.26 48.776 441.82 51.72 443.548 55.368C445.34 59.016 446.236 62.984 446.236 67.272C446.236 68.488 445.82 69.512 444.988 70.344C444.22 71.176 443.164 71.592 441.82 71.592H409.276C409.788 75.88 411.42 79.336 414.172 81.96C416.924 84.52 420.892 85.8 426.076 85.8C428.956 85.8 431.388 85.544 433.372 85.032C435.356 84.456 437.244 83.72 439.036 82.824C439.548 82.568 440.124 82.44 440.764 82.44C441.788 82.44 442.684 82.792 443.452 83.496C444.22 84.2 444.604 85.096 444.604 86.184C444.604 86.952 444.348 87.656 443.836 88.296C443.388 88.872 442.812 89.352 442.108 89.736C439.996 90.952 437.692 91.976 435.196 92.808C432.764 93.576 429.468 93.96 425.308 93.96ZM409.276 64.488H437.596C437.404 61.16 436.54 58.472 435.004 56.424C433.532 54.376 431.74 52.872 429.628 51.912C427.516 50.952 425.436 50.472 423.388 50.472C421.34 50.472 419.26 50.952 417.148 51.912C415.036 52.872 413.244 54.376 411.772 56.424C410.3 58.472 409.468 61.16 409.276 64.488ZM464.035 93.48C462.819 93.48 461.795 93.064 460.963 92.232C460.131 91.4 459.715 90.376 459.715 89.16V47.976C459.715 46.76 460.131 45.736 460.963 44.904C461.795 44.008 462.819 43.56 464.035 43.56C465.251 43.56 466.275 44.008 467.107 44.904C468.003 45.736 468.451 46.76 468.451 47.976V51.912C469.347 50.632 470.467 49.32 471.811 47.976C473.219 46.632 474.979 45.48 477.091 44.52C479.203 43.56 481.763 43.08 484.771 43.08C488.611 43.08 491.747 44.104 494.179 46.152C496.675 48.2 498.435 50.472 499.459 52.968C500.227 51.752 501.315 50.376 502.723 48.84C504.131 47.304 505.987 45.96 508.291 44.808C510.659 43.656 513.603 43.08 517.123 43.08C520.899 43.08 523.971 44.04 526.339 45.96C528.707 47.816 530.435 50.152 531.523 52.968C532.611 55.784 533.155 58.632 533.155 61.512V89.16C533.155 90.376 532.707 91.4 531.811 92.232C530.979 93.064 529.955 93.48 528.739 93.48C527.523 93.48 526.499 93.064 525.667 92.232C524.835 91.4 524.419 90.376 524.419 89.16V63.24C524.419 59.208 523.683 56.2 522.211 54.216C520.803 52.168 518.275 51.144 514.627 51.144C512.195 51.144 510.115 51.624 508.387 52.584C506.659 53.48 505.187 54.632 503.971 56.04C502.755 57.448 501.699 58.888 500.803 60.36V89.16C500.803 90.376 500.355 91.4 499.459 92.232C498.627 93.064 497.603 93.48 496.387 93.48C495.171 93.48 494.147 93.064 493.315 92.232C492.483 91.4 492.067 90.376 492.067 89.16V63.24C492.067 59.208 491.331 56.2 489.859 54.216C488.451 52.168 485.923 51.144 482.275 51.144C479.843 51.144 477.763 51.624 476.035 52.584C474.307 53.48 472.835 54.632 471.619 56.04C470.403 57.448 469.347 58.888 468.451 60.36V89.16C468.451 90.376 468.003 91.4 467.107 92.232C466.275 93.064 465.251 93.48 464.035 93.48ZM559.86 115.56C558.708 115.56 557.716 115.144 556.884 114.312C556.116 113.48 555.732 112.488 555.732 111.336C555.732 110.76 555.828 110.248 556.02 109.8L562.26 93.768L544.212 49.8C544.148 49.544 544.052 49.256 543.924 48.936C543.86 48.616 543.828 48.296 543.828 47.976C543.828 46.76 544.244 45.736 545.076 44.904C545.908 44.008 546.932 43.56 548.148 43.56C549.044 43.56 549.844 43.816 550.548 44.328C551.316 44.84 551.86 45.48 552.18 46.248L566.964 82.92L582.036 46.44C582.42 45.544 582.932 44.84 583.572 44.328C584.276 43.816 585.108 43.56 586.068 43.56C587.284 43.56 588.308 44.008 589.14 44.904C589.972 45.736 590.388 46.76 590.388 47.976C590.388 48.552 590.292 49.096 590.1 49.608L563.892 112.584C563.508 113.416 562.996 114.12 562.356 114.696C561.716 115.272 560.884 115.56 559.86 115.56Z" fill="white"/>
<path d="M157.952 92.232L159.422 90.8754H159.422L157.952 92.232ZM157.28 87.24L155.438 86.4599L155.434 86.4708L157.28 87.24ZM181.76 29.448L179.928 28.6464L179.923 28.6571L179.918 28.6679L181.76 29.448ZM183.776 26.76L185.078 28.2785L185.086 28.2714L183.776 26.76ZM191.84 26.76L190.479 28.2256L190.508 28.2526L190.538 28.2785L191.84 26.76ZM193.856 29.448L195.698 28.6679L195.693 28.6571L195.688 28.6464L193.856 29.448ZM218.336 87.24L220.182 86.4708L220.178 86.4599L218.336 87.24ZM217.664 92.232L216.194 90.8754L216.194 90.8754L217.664 92.232ZM210.368 90.792L208.522 91.5612L208.526 91.5706L208.53 91.5798L210.368 90.792ZM204.128 75.816L205.974 75.0468L205.461 73.816H204.128V75.816ZM171.488 75.816V73.816H170.155L169.642 75.0468L171.488 75.816ZM165.248 90.792L167.086 91.5798L167.09 91.5706L167.094 91.5612L165.248 90.792ZM174.848 67.848L173.001 67.0808L171.852 69.848H174.848V67.848ZM200.768 67.848V69.848H203.764L202.615 67.0808L200.768 67.848ZM187.808 36.648L189.655 35.8808L187.808 31.4343L185.961 35.8808L187.808 36.648ZM161.12 93.48V91.48C160.221 91.48 159.74 91.2207 159.422 90.8754L157.952 92.232L156.482 93.5886C157.7 94.9073 159.331 95.48 161.12 95.48V93.48ZM157.952 92.232L159.422 90.8754C159.021 90.4417 158.8 89.9138 158.8 89.16H156.8H154.8C154.8 90.8382 155.347 92.3583 156.482 93.5886L157.952 92.232ZM156.8 89.16H158.8C158.8 89.026 158.852 88.6671 159.126 88.0092L157.28 87.24L155.434 86.4708C155.068 87.3489 154.8 88.27 154.8 89.16H156.8ZM157.28 87.24L159.122 88.0201L183.602 30.2281L181.76 29.448L179.918 28.6679L155.438 86.4599L157.28 87.24ZM181.76 29.448L183.592 30.2496C183.913 29.5169 184.397 28.8618 185.078 28.2785L183.776 26.76L182.474 25.2415C181.363 26.1942 180.503 27.3311 179.928 28.6464L181.76 29.448ZM183.776 26.76L185.086 28.2714C185.642 27.7893 186.345 27.512 187.328 27.512V25.512V23.512C185.495 23.512 183.83 24.0667 182.466 25.2486L183.776 26.76ZM187.328 25.512V27.512H188.288V25.512V23.512H187.328V25.512ZM188.288 25.512V27.512C189.364 27.512 190.026 27.8046 190.479 28.2256L191.84 26.76L193.201 25.2944C191.862 24.0514 190.156 23.512 188.288 23.512V25.512ZM191.84 26.76L190.538 28.2785C191.219 28.8618 191.703 29.5169 192.024 30.2496L193.856 29.448L195.688 28.6464C195.113 27.3311 194.253 26.1942 193.142 25.2415L191.84 26.76ZM193.856 29.448L192.014 30.2281L216.494 88.0201L218.336 87.24L220.178 86.4599L195.698 28.6679L193.856 29.448ZM218.336 87.24L216.49 88.0092C216.764 88.6671 216.816 89.026 216.816 89.16H218.816H220.816C220.816 88.27 220.548 87.3489 220.182 86.4708L218.336 87.24ZM218.816 89.16H216.816C216.816 89.9138 216.595 90.4417 216.194 90.8754L217.664 92.232L219.134 93.5886C220.269 92.3583 220.816 90.8382 220.816 89.16H218.816ZM217.664 92.232L216.194 90.8754C215.876 91.2207 215.395 91.48 214.496 91.48V93.48V95.48C216.285 95.48 217.916 94.9073 219.134 93.5886L217.664 92.232ZM214.496 93.48V91.48C213.81 91.48 213.368 91.3281 213.067 91.132C212.769 90.9375 212.464 90.6061 212.206 90.0042L210.368 90.792L208.53 91.5798C209.04 92.7699 209.807 93.7825 210.885 94.484C211.96 95.1839 213.198 95.48 214.496 95.48V93.48ZM210.368 90.792L212.214 90.0228L205.974 75.0468L204.128 75.816L202.282 76.5852L208.522 91.5612L210.368 90.792ZM204.128 75.816V73.816H171.488V75.816V77.816H204.128V75.816ZM171.488 75.816L169.642 75.0468L163.402 90.0228L165.248 90.792L167.094 91.5612L173.334 76.5852L171.488 75.816ZM165.248 90.792L163.41 90.0042C163.152 90.6061 162.847 90.9375 162.549 91.132C162.248 91.3281 161.806 91.48 161.12 91.48V93.48V95.48C162.418 95.48 163.656 95.1839 164.731 94.484C165.809 93.7825 166.576 92.7699 167.086 91.5798L165.248 90.792ZM174.848 67.848V69.848H200.768V67.848V65.848H174.848V67.848ZM200.768 67.848L202.615 67.0808L189.655 35.8808L187.808 36.648L185.961 37.4152L198.921 68.6152L200.768 67.848ZM187.808 36.648L185.961 35.8808L173.001 67.0808L174.848 67.848L176.695 68.6152L189.655 37.4152L187.808 36.648ZM241.988 90.984L241.059 92.7551L241.07 92.7611L241.082 92.767L241.988 90.984ZM232.58 82.248L230.878 83.2978L230.882 83.3042L230.886 83.3106L232.58 82.248ZM232.58 54.792L230.886 53.7294V53.7294L232.58 54.792ZM241.988 46.152L242.894 47.935L242.906 47.9291L242.917 47.9231L241.988 46.152ZM264.068 44.616L263.309 46.4663L263.337 46.4779L263.366 46.4887L264.068 44.616ZM270.308 47.688L269.183 49.3419L269.201 49.3535L269.218 49.3649L270.308 47.688ZM271.172 53.64L269.645 52.3481L269.645 52.3481L271.172 53.64ZM266.468 54.312L267.426 52.5562L267.416 52.5511L266.468 54.312ZM242.372 56.04L240.944 54.6401L240.936 54.6475L240.929 54.6549L242.372 56.04ZM242.372 81L240.929 82.3851L240.936 82.3925L240.944 82.3999L242.372 81ZM261.572 84.936L262.249 86.8178L262.282 86.8059L262.315 86.793L261.572 84.936ZM266.468 82.728L267.362 84.5169L267.394 84.5009L267.426 84.4838L266.468 82.728ZM271.172 83.4L269.645 84.6919V84.6919L271.172 83.4ZM270.308 89.352L271.386 91.0366L271.398 91.0289L270.308 89.352ZM264.068 92.424L263.325 90.567L263.317 90.5703L263.309 90.5737L264.068 92.424ZM254.66 93.96V91.96C250.419 91.96 246.507 91.0369 242.894 89.201L241.988 90.984L241.082 92.767C245.277 94.8991 249.813 95.96 254.66 95.96V93.96ZM241.988 90.984L242.917 89.2129C239.33 87.3311 236.457 84.6652 234.274 81.1854L232.58 82.248L230.886 83.3106C233.439 87.3828 236.838 90.5409 241.059 92.7551L241.988 90.984ZM232.58 82.248L234.282 81.1982C232.141 77.7261 231.028 73.5279 231.028 68.52H229.028H227.028C227.028 74.1361 228.283 79.0899 230.878 83.2978L232.58 82.248ZM229.028 68.52H231.028C231.028 63.4418 232.144 59.2519 234.274 55.8546L232.58 54.792L230.886 53.7294C228.28 57.8841 227.028 62.8462 227.028 68.52H229.028ZM232.58 54.792L234.274 55.8546C236.453 52.38 239.319 49.7517 242.894 47.935L241.988 46.152L241.082 44.369C236.849 46.5203 233.443 49.652 230.886 53.7294L232.58 54.792ZM241.988 46.152L242.917 47.9231C246.525 46.0302 250.429 45.08 254.66 45.08V43.08V41.08C249.803 41.08 245.259 42.1778 241.059 44.3809L241.988 46.152ZM254.66 43.08V45.08C258.272 45.08 261.129 45.5722 263.309 46.4663L264.068 44.616L264.827 42.7657C262.015 41.6118 258.6 41.08 254.66 41.08V43.08ZM264.068 44.616L263.366 46.4887C265.833 47.4138 267.757 48.3716 269.183 49.3419L270.308 47.688L271.433 46.0341C269.659 44.8284 267.423 43.7382 264.77 42.7433L264.068 44.616ZM270.308 47.688L269.218 49.3649C269.987 49.865 270.228 50.3822 270.228 51.048H272.228H274.228C274.228 48.8978 273.189 47.175 271.398 46.0111L270.308 47.688ZM272.228 51.048H270.228C270.228 51.3744 270.112 51.796 269.645 52.3481L271.172 53.64L272.699 54.9319C273.64 53.82 274.228 52.5136 274.228 51.048H272.228ZM271.172 53.64L269.645 52.3481C269.293 52.764 268.974 52.888 268.58 52.888V54.888V56.888C270.234 56.888 271.643 56.18 272.699 54.9319L271.172 53.64ZM268.58 54.888V52.888C268.255 52.888 267.877 52.8025 267.426 52.5562L266.468 54.312L265.51 56.0678C266.467 56.5895 267.497 56.888 268.58 56.888V54.888ZM266.468 54.312L267.416 52.5511C265.675 51.6132 263.952 50.8352 262.249 50.2222L261.572 52.104L260.895 53.9858C262.392 54.5248 263.933 55.2188 265.52 56.0729L266.468 54.312ZM261.572 52.104L262.249 50.2222C260.356 49.5406 258.057 49.24 255.428 49.24V51.24V53.24C257.791 53.24 259.588 53.5154 260.895 53.9858L261.572 52.104ZM255.428 51.24V49.24C249.461 49.24 244.543 50.9675 240.944 54.6401L242.372 56.04L243.8 57.4399C246.473 54.7125 250.259 53.24 255.428 53.24V51.24ZM242.372 56.04L240.929 54.6549C237.444 58.285 235.764 62.9694 235.764 68.52H237.764H239.764C239.764 63.8306 241.156 60.195 243.815 57.4251L242.372 56.04ZM237.764 68.52H235.764C235.764 74.0706 237.444 78.7551 240.929 82.3851L242.372 81L243.815 79.6149C241.156 76.845 239.764 73.2094 239.764 68.52H237.764ZM242.372 81L240.944 82.3999C244.543 86.0725 249.461 87.8 255.428 87.8V85.8V83.8C250.259 83.8 246.473 82.3275 243.8 79.6001L242.372 81ZM255.428 85.8V87.8C258.057 87.8 260.356 87.4994 262.249 86.8178L261.572 84.936L260.895 83.0542C259.588 83.5246 257.791 83.8 255.428 83.8V85.8ZM261.572 84.936L262.315 86.793C263.97 86.1308 265.653 85.3717 267.362 84.5169L266.468 82.728L265.574 80.9391C263.955 81.7483 262.374 82.4612 260.829 83.079L261.572 84.936ZM266.468 82.728L267.426 84.4838C267.877 84.2375 268.255 84.152 268.58 84.152V82.152V80.152C267.497 80.152 266.467 80.4505 265.51 80.9722L266.468 82.728ZM268.58 82.152V84.152C268.974 84.152 269.293 84.276 269.645 84.6919L271.172 83.4L272.699 82.1081C271.643 80.86 270.234 80.152 268.58 80.152V82.152ZM271.172 83.4L269.645 84.6919C270.112 85.244 270.228 85.6656 270.228 85.992H272.228H274.228C274.228 84.5264 273.64 83.22 272.699 82.1081L271.172 83.4ZM272.228 85.992H270.228C270.228 86.6578 269.987 87.175 269.218 87.6751L270.308 89.352L271.398 91.0289C273.189 89.865 274.228 88.1422 274.228 85.992H272.228ZM270.308 89.352L269.23 87.6675C267.772 88.6007 265.816 89.5709 263.325 90.567L264.068 92.424L264.811 94.281C267.44 93.2291 269.644 92.1513 271.386 91.0365L270.308 89.352ZM264.068 92.424L263.309 90.5737C261.129 91.4678 258.272 91.96 254.66 91.96V93.96V95.96C258.6 95.96 262.015 95.4282 264.827 94.2743L264.068 92.424ZM289.815 92.232L288.941 94.0305L288.95 94.035L288.959 94.0395L289.815 92.232ZM284.055 87.336L282.376 88.4225L282.395 88.4514L282.415 88.4796L284.055 87.336ZM287.32 68.424L288.572 69.983L288.576 69.9804L287.32 68.424ZM315.639 64.008V66.008H317.639V64.008H315.639ZM312.471 54.12L311.151 55.6223L311.164 55.6338L311.178 55.645L312.471 54.12ZM295.671 52.104L296.112 54.0549L296.134 54.0498L296.157 54.0443L295.671 52.104ZM290.007 53.64L290.493 55.5803L290.557 55.5643L290.62 55.5441L290.007 53.64ZM286.263 52.776L287.678 51.3618V51.3618L286.263 52.776ZM287.703 46.536L288.483 48.378L288.491 48.3743L287.703 46.536ZM295.095 44.136L295.559 46.0816L295.575 46.0777L295.591 46.0736L295.095 44.136ZM322.263 52.968L320.467 53.8464V53.8464L322.263 52.968ZM323.031 92.232L321.671 90.7664L321.643 90.7916L321.617 90.8178L323.031 92.232ZM316.887 92.232L318.302 90.8178V90.8178L316.887 92.232ZM315.639 86.664H317.639V81.7086L314.2 85.2757L315.639 86.664ZM308.727 91.656L309.669 93.4207V93.4207L308.727 91.656ZM309.303 84.072L310.282 85.8163V85.8163L309.303 84.072ZM315.639 79.08L317.154 80.3859L317.639 79.8231V79.08H315.639ZM315.639 71.016H317.639V69.016H315.639V71.016ZM294.52 72.744L293.716 70.9127L293.707 70.9164L293.699 70.9202L294.52 72.744ZM292.792 83.976L291.317 85.3274L291.332 85.3438L291.348 85.3598L292.792 83.976ZM297.591 93.96V91.96C295.129 91.96 292.83 91.4468 290.672 90.4245L289.815 92.232L288.959 94.0395C291.665 95.3212 294.55 95.96 297.591 95.96V93.96ZM289.815 92.232L290.69 90.4335C288.622 89.4273 286.968 88.0177 285.696 86.1924L284.055 87.336L282.415 88.4796C284.087 90.8783 286.273 92.7327 288.941 94.0305L289.815 92.232ZM284.055 87.336L285.735 86.2495C284.568 84.4465 283.943 82.2458 283.943 79.56H281.943H279.943C279.943 82.8902 280.727 85.8735 282.376 88.4225L284.055 87.336ZM281.943 79.56H283.943C283.943 75.6304 285.454 72.4886 288.572 69.983L287.32 68.424L286.067 66.865C282.017 70.1194 279.943 74.4016 279.943 79.56H281.943ZM287.32 68.424L288.576 69.9804C291.71 67.4507 296.737 66.008 304.023 66.008V64.008V62.008C296.334 62.008 290.225 63.5093 286.063 66.8676L287.32 68.424ZM304.023 64.008V66.008H315.639V64.008V62.008H304.023V64.008ZM315.639 64.008H317.639V63.24H315.639H313.639V64.008H315.639ZM315.639 63.24H317.639C317.639 58.6871 316.524 54.9352 313.765 52.595L312.471 54.12L311.178 55.645C312.643 56.8888 313.639 59.2169 313.639 63.24H315.639ZM312.471 54.12L313.792 52.6177C311.16 50.3052 307.358 49.336 302.775 49.336V51.336V53.336C306.897 53.336 309.559 54.2228 311.151 55.6223L312.471 54.12ZM302.775 51.336V49.336C299.966 49.336 297.429 49.603 295.186 50.1637L295.671 52.104L296.157 54.0443C298.01 53.581 300.209 53.336 302.775 53.336V51.336ZM295.671 52.104L295.231 50.1531C293.194 50.6131 291.248 51.1404 289.395 51.7359L290.007 53.64L290.62 55.5441C292.351 54.9876 294.181 54.4909 296.112 54.0549L295.671 52.104ZM290.007 53.64L289.522 51.6997C289.081 51.8101 288.845 51.832 288.759 51.832V53.832V55.832C289.314 55.832 289.91 55.7259 290.493 55.5803L290.007 53.64ZM288.759 53.832V51.832C288.352 51.832 288.022 51.7062 287.678 51.3618L286.263 52.776L284.849 54.1902C285.913 55.2537 287.247 55.832 288.759 55.832V53.832ZM286.263 52.776L287.678 51.3618C287.361 51.0447 287.207 50.6945 287.207 50.184H285.207H283.207C283.207 51.7215 283.758 53.0993 284.849 54.1902L286.263 52.776ZM285.207 50.184H287.207C287.207 49.6517 287.331 49.3263 287.482 49.1054C287.637 48.8783 287.923 48.6146 288.483 48.3779L287.703 46.536L286.924 44.6941C285.82 45.1614 284.857 45.8577 284.181 46.8466C283.5 47.8417 283.207 48.9883 283.207 50.184H285.207ZM287.703 46.536L288.491 48.3743C290.614 47.4648 292.967 46.6986 295.559 46.0816L295.095 44.136L294.632 42.1904C291.848 42.8534 289.273 43.6872 286.916 44.6977L287.703 46.536ZM295.095 44.136L295.591 46.0736C298.153 45.4181 301.055 45.08 304.311 45.08V43.08V41.08C300.784 41.08 297.542 41.4459 294.6 42.1984L295.095 44.136ZM304.311 43.08V45.08C308.732 45.08 312.136 45.9591 314.669 47.5558L315.736 45.864L316.802 44.1721C313.447 42.0569 309.235 41.08 304.311 41.08V43.08ZM315.736 45.864L314.669 47.5558C317.327 49.2314 319.236 51.3285 320.467 53.8464L322.263 52.968L324.06 52.0896C322.475 48.8475 320.032 46.2086 316.802 44.1721L315.736 45.864ZM322.263 52.968L320.467 53.8464C321.744 56.4592 322.376 59.1674 322.376 61.992H324.376H326.376C326.376 58.5446 325.599 55.2368 324.06 52.0896L322.263 52.968ZM324.376 61.992H322.376V89.16H324.376H326.376V61.992H324.376ZM324.376 89.16H322.376C322.376 89.8164 322.162 90.3105 321.671 90.7664L323.031 92.232L324.392 93.6976C325.693 92.4895 326.376 90.9356 326.376 89.16H324.376ZM323.031 92.232L321.617 90.8178C321.174 91.2609 320.665 91.48 319.96 91.48V93.48V95.48C321.686 95.48 323.225 94.8671 324.446 93.6462L323.031 92.232ZM319.96 93.48V91.48C319.254 91.48 318.745 91.2609 318.302 90.8178L316.887 92.232L315.473 93.6462C316.694 94.8671 318.233 95.48 319.96 95.48V93.48ZM316.887 92.232L318.302 90.8178C317.859 90.3747 317.639 89.8654 317.639 89.16H315.639H313.639C313.639 90.8866 314.252 92.4253 315.473 93.6462L316.887 92.232ZM315.639 89.16H317.639V86.664H315.639H313.639V89.16H315.639ZM315.639 86.664L314.2 85.2757C312.654 86.8783 310.536 88.425 307.786 89.8913L308.727 91.656L309.669 93.4207C312.679 91.815 315.169 90.0337 317.079 88.0523L315.639 86.664ZM308.727 91.656L307.786 89.8913C305.287 91.2242 301.929 91.96 297.591 91.96V93.96V95.96C302.342 95.96 306.408 95.1598 309.669 93.4207L308.727 91.656ZM300.855 86.28V88.28C304.206 88.28 307.359 87.4559 310.282 85.8163L309.303 84.072L308.325 82.3277C306 83.6321 303.521 84.28 300.855 84.28V86.28ZM309.303 84.072L310.282 85.8163C313.064 84.2555 315.372 82.4531 317.154 80.3859L315.639 79.08L314.125 77.7741C312.707 79.4189 310.791 80.9445 308.325 82.3277L309.303 84.072ZM315.639 79.08H317.639V71.016H315.639H313.639V79.08H315.639ZM315.639 71.016V69.016H305.176V71.016V73.016H315.639V71.016ZM305.176 71.016V69.016C300.558 69.016 296.695 69.6045 293.716 70.9127L294.52 72.744L295.323 74.5753C297.592 73.5795 300.833 73.016 305.176 73.016V71.016ZM294.52 72.744L293.699 70.9202C292.142 71.6205 290.855 72.6213 289.967 73.9753C289.077 75.3319 288.68 76.9054 288.68 78.6H290.68H292.68C292.68 77.5426 292.922 76.7641 293.312 76.1687C293.704 75.5707 294.337 75.0195 295.34 74.5678L294.52 72.744ZM290.68 78.6H288.68C288.68 81.158 289.578 83.4297 291.317 85.3274L292.792 83.976L294.266 82.6245C293.189 81.4503 292.68 80.138 292.68 78.6H290.68ZM292.792 83.976L291.348 85.3598C293.41 87.5122 296.821 88.28 300.855 88.28V86.28V84.28C297.082 84.28 295.117 83.5118 294.235 82.5922L292.792 83.976ZM350.058 90.984L349.076 92.7263L349.082 92.7301L349.089 92.7338L350.058 90.984ZM341.322 82.344L339.602 83.3644L339.608 83.3751L339.614 83.3857L341.322 82.344ZM341.322 54.696L339.614 53.6543L339.608 53.6649L339.602 53.6756L341.322 54.696ZM350.058 46.056L349.089 44.3062L349.082 44.3099L349.076 44.3137L350.058 46.056ZM370.314 45L369.454 46.8057H369.454L370.314 45ZM377.61 50.376L376.156 51.7492L379.61 55.4064V50.376H377.61ZM378.858 23.688L377.497 22.2224L377.47 22.2476L377.444 22.2738L378.858 23.688ZM385.098 23.688L386.512 22.2738V22.2738L385.098 23.688ZM385.098 92.232L386.512 93.6462L385.098 92.232ZM378.858 92.232L377.444 93.6462L377.47 93.6724L377.497 93.6976L378.858 92.232ZM377.61 86.664H379.61V81.6336L376.156 85.2908L377.61 86.664ZM370.314 92.04L369.454 90.2343L370.314 92.04ZM370.986 83.784L371.915 85.5548L371.933 85.5458L371.95 85.5364L370.986 83.784ZM377.61 78.6L379.092 79.943L379.61 79.3714V78.6H377.61ZM377.61 58.44H379.61V57.6686L379.092 57.097L377.61 58.44ZM370.986 53.352L370.022 55.1044L370.039 55.1138L370.056 55.1228L370.986 53.352ZM351.114 55.656L352.512 57.0857L352.513 57.0853L351.114 55.656ZM351.114 81.384L349.7 82.7982L349.707 82.8058L349.715 82.8133L351.114 81.384ZM361.194 93.96V91.96C357.715 91.96 354.334 91.0654 351.026 89.2342L350.058 90.984L349.089 92.7338C352.949 94.8706 356.992 95.96 361.194 95.96V93.96ZM350.058 90.984L351.04 89.2417C347.845 87.441 345.172 84.815 343.029 81.3023L341.322 82.344L339.614 83.3857C342.079 87.425 345.23 90.559 349.076 92.7263L350.058 90.984ZM341.322 82.344L343.042 81.3236C341.024 77.9223 339.962 73.6862 339.962 68.52H337.962H335.962C335.962 74.2338 337.139 79.2137 339.602 83.3644L341.322 82.344ZM337.962 68.52H339.962C339.962 63.3538 341.024 59.1177 343.042 55.7164L341.322 54.696L339.602 53.6756C337.139 57.8263 335.962 62.8062 335.962 68.52H337.962ZM341.322 54.696L343.029 55.7377C345.172 52.225 347.845 49.599 351.04 47.7983L350.058 46.056L349.076 44.3137C345.23 46.481 342.079 49.615 339.614 53.6543L341.322 54.696ZM350.058 46.056L351.026 47.8058C354.334 45.9746 357.715 45.08 361.194 45.08V43.08V41.08C356.992 41.08 352.949 42.1694 349.089 44.3062L350.058 46.056ZM361.194 43.08V45.08C364.33 45.08 367.07 45.6704 369.454 46.8057L370.314 45L371.174 43.1943C368.182 41.7696 364.842 41.08 361.194 41.08V43.08ZM370.314 45L369.454 46.8057C371.905 47.9728 374.138 49.6132 376.156 51.7492L377.61 50.376L379.064 49.0028C376.729 46.5308 374.099 44.5872 371.174 43.1943L370.314 45ZM377.61 50.376H379.61V26.856H377.61H375.61V50.376H377.61ZM377.61 26.856H379.61C379.61 26.0551 379.85 25.5243 380.272 25.1022L378.858 23.688L377.444 22.2738C376.202 23.5157 375.61 25.0969 375.61 26.856H377.61ZM378.858 23.688L380.219 25.1536C380.747 24.663 381.318 24.44 382.026 24.44V22.44V20.44C380.302 20.44 378.76 21.049 377.497 22.2224L378.858 23.688ZM382.026 22.44V24.44C382.731 24.44 383.24 24.6591 383.684 25.1022L385.098 23.688L386.512 22.2738C385.291 21.0529 383.752 20.44 382.026 20.44V22.44ZM385.098 23.688L383.684 25.1022C384.106 25.5243 384.346 26.0551 384.346 26.856H386.346H388.346C388.346 25.0969 387.754 23.5157 386.512 22.2738L385.098 23.688ZM386.346 26.856H384.346V89.16H386.346H388.346V26.856H386.346ZM386.346 89.16H384.346C384.346 89.8654 384.127 90.3747 383.684 90.8178L385.098 92.232L386.512 93.6462C387.733 92.4253 388.346 90.8866 388.346 89.16H386.346ZM385.098 92.232L383.684 90.8178C383.24 91.2609 382.731 91.48 382.026 91.48V93.48V95.48C383.752 95.48 385.291 94.8671 386.512 93.6462L385.098 92.232ZM382.026 93.48V91.48C381.318 91.48 380.747 91.257 380.219 90.7664L378.858 92.232L377.497 93.6976C378.76 94.871 380.302 95.48 382.026 95.48V93.48ZM378.858 92.232L380.272 90.8178C379.829 90.3747 379.61 89.8654 379.61 89.16H377.61H375.61C375.61 90.8866 376.223 92.4253 377.444 93.6462L378.858 92.232ZM377.61 89.16H379.61V86.664H377.61H375.61V89.16H377.61ZM377.61 86.664L376.156 85.2908C374.138 87.4268 371.905 89.0672 369.454 90.2343L370.314 92.04L371.174 93.8457C374.099 92.4528 376.729 90.5092 379.064 88.0372L377.61 86.664ZM370.314 92.04L369.454 90.2343C367.07 91.3696 364.33 91.96 361.194 91.96V93.96V95.96C364.842 95.96 368.182 95.2704 371.174 93.8457L370.314 92.04ZM362.442 85.8V87.8C365.874 87.8 369.045 87.0619 371.915 85.5548L370.986 83.784L370.056 82.0132C367.807 83.1941 365.282 83.8 362.442 83.8V85.8ZM370.986 83.784L371.95 85.5364C374.693 84.0278 377.079 82.1644 379.092 79.943L377.61 78.6L376.128 77.257C374.429 79.1316 372.399 80.7242 370.022 82.0316L370.986 83.784ZM377.61 78.6H379.61V58.44H377.61H375.61V78.6H377.61ZM377.61 58.44L379.092 57.097C377.071 54.8671 374.673 53.0292 371.915 51.5812L370.986 53.352L370.056 55.1228C372.418 56.3628 374.437 57.9169 376.128 59.783L377.61 58.44ZM370.986 53.352L371.95 51.5996C369.073 50.0173 365.889 49.24 362.442 49.24V51.24V53.24C365.266 53.24 367.779 53.8707 370.022 55.1044L370.986 53.352ZM362.442 51.24V49.24C357.421 49.24 353.128 50.886 349.715 54.2267L351.114 55.656L352.513 57.0853C355.115 54.538 358.375 53.24 362.442 53.24V51.24ZM351.114 55.656L349.715 54.2263C346.258 57.6081 344.698 62.4968 344.698 68.52H346.698H348.698C348.698 63.1512 350.081 59.4639 352.512 57.0857L351.114 55.656ZM346.698 68.52H344.698C344.698 74.4901 346.263 79.3621 349.7 82.7982L351.114 81.384L352.528 79.9698C350.076 77.5179 348.698 73.8139 348.698 68.52H346.698ZM351.114 81.384L349.715 82.8133C353.128 86.154 357.421 87.8 362.442 87.8V85.8V83.8C358.375 83.8 355.115 82.502 352.513 79.9547L351.114 81.384ZM406.972 87.336L405.538 88.7296L405.548 88.74L405.558 88.7502L406.972 87.336ZM402.844 56.232L404.69 57.0012L404.695 56.9904L402.844 56.232ZM410.332 46.728L411.498 48.3534V48.3534L410.332 46.728ZM435.868 46.536L434.744 48.1904L434.755 48.1978L434.766 48.2049L435.868 46.536ZM443.548 55.368L441.741 56.2242L441.747 56.237L441.753 56.2498L443.548 55.368ZM444.988 70.344L443.574 68.9298L443.546 68.9581L443.519 68.9874L444.988 70.344ZM409.276 71.592V69.592H407.023L407.29 71.8291L409.276 71.592ZM414.172 81.96L412.792 83.4075L412.801 83.416L412.81 83.4244L414.172 81.96ZM433.372 85.032L433.872 86.9686L433.901 86.9611L433.93 86.9527L433.372 85.032ZM439.036 82.824L438.142 81.0351V81.0351L439.036 82.824ZM443.836 88.296L442.275 87.0466L442.266 87.0573L442.258 87.0681L443.836 88.296ZM442.108 89.736L441.151 87.9802L441.13 87.9912L441.11 88.0028L442.108 89.736ZM435.196 92.808L435.799 94.7152L435.814 94.7104L435.829 94.7054L435.196 92.808ZM409.276 64.488L407.28 64.3728L407.158 66.488H409.276V64.488ZM437.596 64.488V66.488H439.715L439.593 64.3728L437.596 64.488ZM435.004 56.424L433.38 57.5913L433.392 57.6078L433.404 57.624L435.004 56.424ZM429.628 51.912L430.456 50.0913V50.0913L429.628 51.912ZM417.148 51.912L416.321 50.0913V50.0913L417.148 51.912ZM425.308 93.96V91.96C417.89 91.96 412.339 89.874 408.386 85.9218L406.972 87.336L405.558 88.7502C410.438 93.63 417.11 95.96 425.308 95.96V93.96ZM406.972 87.336L408.407 85.9424C404.514 81.9352 402.444 76.2212 402.444 68.52H400.444H398.444C398.444 76.9468 400.726 83.7768 405.538 88.7296L406.972 87.336ZM400.444 68.52H402.444C402.444 64.4196 403.197 60.5863 404.69 57.0012L402.844 56.232L400.998 55.4628C399.292 59.5577 398.444 63.9164 398.444 68.52H400.444ZM402.844 56.232L404.695 56.9904C406.154 53.43 408.414 50.564 411.498 48.3534L410.332 46.728L409.167 45.1026C405.466 47.756 402.734 51.226 400.994 55.4736L402.844 56.232ZM410.332 46.728L411.498 48.3534C414.467 46.2241 418.38 45.08 423.388 45.08V43.08V41.08C417.773 41.08 412.981 42.3679 409.167 45.1026L410.332 46.728ZM423.388 43.08V45.08C427.998 45.08 431.746 46.1537 434.744 48.1904L435.868 46.536L436.992 44.8816C433.206 42.3102 428.635 41.08 423.388 41.08V43.08ZM435.868 46.536L434.766 48.2049C437.855 50.245 440.17 52.9089 441.741 56.2242L443.548 55.368L445.356 54.5118C443.47 50.5311 440.665 47.307 436.97 44.8671L435.868 46.536ZM443.548 55.368L441.753 56.2498C443.403 59.6083 444.236 63.2725 444.236 67.272H446.236H448.236C448.236 62.6955 447.278 58.4237 445.343 54.4862L443.548 55.368ZM446.236 67.272H444.236C444.236 67.9774 444.017 68.4867 443.574 68.9298L444.988 70.344L446.402 71.7582C447.623 70.5373 448.236 68.9986 448.236 67.272H446.236ZM444.988 70.344L443.519 68.9874C443.2 69.3327 442.72 69.592 441.82 69.592V71.592V73.592C443.609 73.592 445.241 73.0193 446.458 71.7006L444.988 70.344ZM441.82 71.592V69.592H409.276V71.592V73.592H441.82V71.592ZM409.276 71.592L407.29 71.8291C407.85 76.5124 409.658 80.4194 412.792 83.4075L414.172 81.96L415.552 80.5125C413.182 78.2526 411.727 75.2476 411.262 71.3549L409.276 71.592ZM414.172 81.96L412.81 83.4244C416.053 86.441 420.58 87.8 426.076 87.8V85.8V83.8C421.204 83.8 417.796 82.599 415.534 80.4956L414.172 81.96ZM426.076 85.8V87.8C429.062 87.8 431.674 87.5358 433.872 86.9686L433.372 85.032L432.872 83.0954C431.103 83.5522 428.85 83.8 426.076 83.8V85.8ZM433.372 85.032L433.93 86.9527C436.026 86.3441 438.027 85.5645 439.931 84.6129L439.036 82.824L438.142 81.0351C436.461 81.8755 434.686 82.5679 432.815 83.1113L433.372 85.032ZM439.036 82.824L439.931 84.6129C440.134 84.5114 440.398 84.44 440.764 84.44V82.44V80.44C439.851 80.44 438.963 80.6246 438.142 81.0351L439.036 82.824ZM440.764 82.44V84.44C441.278 84.44 441.695 84.5979 442.101 84.9703L443.452 83.496L444.804 82.0217C443.674 80.9861 442.298 80.44 440.764 80.44V82.44ZM443.452 83.496L442.101 84.9703C442.435 85.2769 442.604 85.6285 442.604 86.184H444.604H446.604C446.604 84.5635 446.005 83.1231 444.804 82.0217L443.452 83.496ZM444.604 86.184H442.604C442.604 86.4662 442.523 86.7357 442.275 87.0466L443.836 88.296L445.398 89.5454C446.173 88.5763 446.604 87.4378 446.604 86.184H444.604ZM443.836 88.296L442.258 87.0681C441.994 87.4068 441.638 87.7146 441.151 87.9802L442.108 89.736L443.066 91.4918C443.987 90.9894 444.782 90.3372 445.415 89.5239L443.836 88.296ZM442.108 89.736L441.11 88.0028C439.123 89.1469 436.943 90.1176 434.564 90.9106L435.196 92.808L435.829 94.7054C438.442 93.8344 440.869 92.7571 443.106 91.4692L442.108 89.736ZM435.196 92.808L434.594 90.9008C432.44 91.5809 429.376 91.96 425.308 91.96V93.96V95.96C429.561 95.96 433.088 95.5711 435.799 94.7152L435.196 92.808ZM409.276 64.488V66.488H437.596V64.488V62.488H409.276V64.488ZM437.596 64.488L439.593 64.3728C439.385 60.7693 438.438 57.6691 436.604 55.224L435.004 56.424L433.404 57.624C434.642 59.2749 435.423 61.5507 435.6 64.6032L437.596 64.488ZM435.004 56.424L436.628 55.2567C434.971 52.9506 432.913 51.2082 430.456 50.0913L429.628 51.912L428.801 53.7327C430.567 54.5358 432.094 55.8014 433.38 57.5913L435.004 56.424ZM429.628 51.912L430.456 50.0913C428.118 49.0288 425.757 48.472 423.388 48.472V50.472V52.472C425.115 52.472 426.914 52.8752 428.801 53.7327L429.628 51.912ZM423.388 50.472V48.472C421.019 48.472 418.658 49.0288 416.321 50.0913L417.148 51.912L417.976 53.7327C419.862 52.8752 421.661 52.472 423.388 52.472V50.472ZM417.148 51.912L416.321 50.0913C413.863 51.2082 411.806 52.9506 410.148 55.2567L411.772 56.424L413.396 57.5913C414.683 55.8014 416.209 54.5358 417.976 53.7327L417.148 51.912ZM411.772 56.424L410.148 55.2567C408.394 57.6974 407.487 60.7851 407.28 64.3728L409.276 64.488L411.273 64.6032C411.45 61.5349 412.207 59.2466 413.396 57.5913L411.772 56.424ZM460.963 92.232L462.377 90.8178V90.8178L460.963 92.232ZM460.963 44.904L462.377 46.3182L462.404 46.292L462.429 46.2649L460.963 44.904ZM467.107 44.904L465.642 46.2649L465.692 46.3192L465.746 46.3696L467.107 44.904ZM468.451 51.912H466.451V58.2567L470.09 53.0589L468.451 51.912ZM471.811 47.976L470.43 46.5293L470.413 46.5453L470.397 46.5618L471.811 47.976ZM477.091 44.52L477.919 46.3407V46.3407L477.091 44.52ZM494.179 46.152L492.891 47.6818L492.901 47.69L492.911 47.6981L494.179 46.152ZM499.459 52.968L497.609 53.7271L499.08 57.3135L501.15 54.036L499.459 52.968ZM502.723 48.84L504.198 50.1914V50.1914L502.723 48.84ZM508.291 44.808L507.416 43.0095L507.407 43.0143L507.397 43.0191L508.291 44.808ZM526.339 45.96L525.08 47.5135L525.092 47.5239L525.105 47.5341L526.339 45.96ZM531.523 52.968L529.658 53.6888V53.6888L531.523 52.968ZM531.811 92.232L530.45 90.7664L530.423 90.7916L530.397 90.8178L531.811 92.232ZM525.667 92.232L524.253 93.6462L525.667 92.232ZM522.211 54.216L520.563 55.3491L520.584 55.3788L520.605 55.4077L522.211 54.216ZM508.387 52.584L509.308 54.3595L509.333 54.3463L509.359 54.3323L508.387 52.584ZM503.971 56.04L502.458 54.7328V54.7328L503.971 56.04ZM500.803 60.36L499.095 59.3201L498.803 59.7992V60.36H500.803ZM499.459 92.232L498.098 90.7664L498.071 90.7916L498.045 90.8178L499.459 92.232ZM493.315 92.232L491.901 93.6462L493.315 92.232ZM489.859 54.216L488.211 55.3491L488.232 55.3787L488.253 55.4077L489.859 54.216ZM476.035 52.584L476.956 54.3595L476.981 54.3463L477.007 54.3323L476.035 52.584ZM471.619 56.04L470.106 54.7328V54.7328L471.619 56.04ZM468.451 60.36L466.743 59.3201L466.451 59.7992V60.36H468.451ZM467.107 92.232L465.746 90.7664L465.719 90.7916L465.693 90.8178L467.107 92.232ZM464.035 93.48V91.48C463.33 91.48 462.821 91.2609 462.377 90.8178L460.963 92.232L459.549 93.6462C460.77 94.8671 462.309 95.48 464.035 95.48V93.48ZM460.963 92.232L462.377 90.8178C461.934 90.3747 461.715 89.8654 461.715 89.16H459.715H457.715C457.715 90.8866 458.328 92.4253 459.549 93.6462L460.963 92.232ZM459.715 89.16H461.715V47.976H459.715H457.715V89.16H459.715ZM459.715 47.976H461.715C461.715 47.2706 461.934 46.7613 462.377 46.3182L460.963 44.904L459.549 43.4898C458.328 44.7107 457.715 46.2494 457.715 47.976H459.715ZM460.963 44.904L462.429 46.2649C462.885 45.7739 463.379 45.56 464.035 45.56V43.56V41.56C462.26 41.56 460.706 42.2421 459.498 43.5431L460.963 44.904ZM464.035 43.56V45.56C464.692 45.56 465.186 45.7739 465.642 46.2649L467.107 44.904L468.573 43.5431C467.365 42.2421 465.811 41.56 464.035 41.56V43.56ZM467.107 44.904L465.746 46.3696C466.237 46.8255 466.451 47.3196 466.451 47.976H468.451H470.451C470.451 46.2004 469.769 44.6465 468.468 43.4384L467.107 44.904ZM468.451 47.976H466.451V51.912H468.451H470.451V47.976H468.451ZM468.451 51.912L470.09 53.0589C470.906 51.8922 471.947 50.6688 473.225 49.3902L471.811 47.976L470.397 46.5618C468.988 47.9712 467.788 49.3718 466.813 50.7651L468.451 51.912ZM471.811 47.976L473.192 49.4227C474.41 48.26 475.973 47.2253 477.919 46.3407L477.091 44.52L476.264 42.6993C473.986 43.7347 472.028 45.004 470.43 46.5293L471.811 47.976ZM477.091 44.52L477.919 46.3407C479.706 45.5284 481.968 45.08 484.771 45.08V43.08V41.08C481.559 41.08 478.701 41.5916 476.264 42.6993L477.091 44.52ZM484.771 43.08V45.08C488.242 45.08 490.891 45.9973 492.891 47.6818L494.179 46.152L495.468 44.6222C492.604 42.2107 488.981 41.08 484.771 41.08V43.08ZM494.179 46.152L492.911 47.6981C495.201 49.5772 496.733 51.5925 497.609 53.7271L499.459 52.968L501.31 52.2089C500.137 49.3515 498.15 46.8228 495.448 44.6059L494.179 46.152ZM499.459 52.968L501.15 54.036C501.833 52.9545 502.838 51.675 504.198 50.1914L502.723 48.84L501.249 47.4885C499.793 49.077 498.621 50.5495 497.768 51.9L499.459 52.968ZM502.723 48.84L504.198 50.1914C505.407 48.8723 507.05 47.6646 509.186 46.5969L508.291 44.808L507.397 43.0191C504.924 44.2554 502.856 45.7356 501.249 47.4885L502.723 48.84ZM508.291 44.808L509.166 46.6065C511.186 45.6239 513.809 45.08 517.123 45.08V43.08V41.08C513.397 41.08 510.133 41.6881 507.416 43.0095L508.291 44.808ZM517.123 43.08V45.08C520.553 45.08 523.146 45.9461 525.08 47.5135L526.339 45.96L527.599 44.4065C524.796 42.1339 521.245 41.08 517.123 41.08V43.08ZM526.339 45.96L525.105 47.5341C527.189 49.167 528.699 51.2078 529.658 53.6888L531.523 52.968L533.389 52.2472C532.171 49.0962 530.226 46.465 527.573 44.3859L526.339 45.96ZM531.523 52.968L529.658 53.6888C530.661 56.2861 531.155 58.8903 531.155 61.512H533.155H535.155C535.155 58.3737 534.561 55.2819 533.389 52.2472L531.523 52.968ZM533.155 61.512H531.155V89.16H533.155H535.155V61.512H533.155ZM533.155 89.16H531.155C531.155 89.8164 530.941 90.3105 530.45 90.7664L531.811 92.232L533.172 93.6976C534.473 92.4895 535.155 90.9356 535.155 89.16H533.155ZM531.811 92.232L530.397 90.8178C529.954 91.2609 529.445 91.48 528.739 91.48V93.48V95.48C530.466 95.48 532.005 94.8671 533.225 93.6462L531.811 92.232ZM528.739 93.48V91.48C528.034 91.48 527.525 91.2609 527.081 90.8178L525.667 92.232L524.253 93.6462C525.474 94.8671 527.013 95.48 528.739 95.48V93.48ZM525.667 92.232L527.081 90.8178C526.638 90.3747 526.419 89.8654 526.419 89.16H524.419H522.419C522.419 90.8866 523.032 92.4253 524.253 93.6462L525.667 92.232ZM524.419 89.16H526.419V63.24H524.419H522.419V89.16H524.419ZM524.419 63.24H526.419C526.419 59.0276 525.662 55.51 523.817 53.0243L522.211 54.216L520.605 55.4077C521.705 56.89 522.419 59.3884 522.419 63.24H524.419ZM522.211 54.216L523.859 53.0829C521.925 50.2692 518.607 49.144 514.627 49.144V51.144V53.144C517.944 53.144 519.682 54.0668 520.563 55.3491L522.211 54.216ZM514.627 51.144V49.144C511.933 49.144 509.502 49.6767 507.416 50.8357L508.387 52.584L509.359 54.3323C510.728 53.5713 512.458 53.144 514.627 53.144V51.144ZM508.387 52.584L507.467 50.8085C505.524 51.816 503.847 53.1236 502.458 54.7328L503.971 56.04L505.485 57.3472C506.527 56.1404 507.795 55.144 509.308 54.3595L508.387 52.584ZM503.971 56.04L502.458 54.7328C501.175 56.2178 500.053 57.7466 499.095 59.3201L500.803 60.36L502.512 61.3999C503.346 60.0294 504.335 58.6782 505.485 57.3472L503.971 56.04ZM500.803 60.36H498.803V89.16H500.803H502.803V60.36H500.803ZM500.803 89.16H498.803C498.803 89.8164 498.589 90.3105 498.098 90.7664L499.459 92.232L500.82 93.6976C502.121 92.4895 502.803 90.9356 502.803 89.16H500.803ZM499.459 92.232L498.045 90.8178C497.602 91.2609 497.093 91.48 496.387 91.48V93.48V95.48C498.114 95.48 499.653 94.8671 500.873 93.6462L499.459 92.232ZM496.387 93.48V91.48C495.682 91.48 495.173 91.2609 494.729 90.8178L493.315 92.232L491.901 93.6462C493.122 94.8671 494.661 95.48 496.387 95.48V93.48ZM493.315 92.232L494.729 90.8178C494.286 90.3747 494.067 89.8654 494.067 89.16H492.067H490.067C490.067 90.8866 490.68 92.4253 491.901 93.6462L493.315 92.232ZM492.067 89.16H494.067V63.24H492.067H490.067V89.16H492.067ZM492.067 63.24H494.067C494.067 59.0276 493.31 55.51 491.465 53.0243L489.859 54.216L488.253 55.4077C489.353 56.89 490.067 59.3884 490.067 63.24H492.067ZM489.859 54.216L491.507 53.0829C489.573 50.2692 486.255 49.144 482.275 49.144V51.144V53.144C485.592 53.144 487.33 54.0668 488.211 55.3491L489.859 54.216ZM482.275 51.144V49.144C479.581 49.144 477.15 49.6767 475.064 50.8357L476.035 52.584L477.007 54.3323C478.376 53.5713 480.106 53.144 482.275 53.144V51.144ZM476.035 52.584L475.115 50.8085C473.172 51.816 471.495 53.1236 470.106 54.7328L471.619 56.04L473.133 57.3472C474.175 56.1404 475.443 55.144 476.956 54.3595L476.035 52.584ZM471.619 56.04L470.106 54.7328C468.823 56.2178 467.701 57.7466 466.743 59.3201L468.451 60.36L470.16 61.3999C470.994 60.0294 471.983 58.6782 473.133 57.3472L471.619 56.04ZM468.451 60.36H466.451V89.16H468.451H470.451V60.36H468.451ZM468.451 89.16H466.451C466.451 89.8164 466.237 90.3105 465.746 90.7664L467.107 92.232L468.468 93.6976C469.769 92.4895 470.451 90.9356 470.451 89.16H468.451ZM467.107 92.232L465.693 90.8178C465.25 91.2609 464.741 91.48 464.035 91.48V93.48V95.48C465.762 95.48 467.301 94.8671 468.521 93.6462L467.107 92.232ZM556.884 114.312L555.415 115.669L555.442 115.698L555.47 115.726L556.884 114.312ZM556.02 109.8L557.859 110.588L557.872 110.557L557.884 110.525L556.02 109.8ZM562.26 93.768L564.124 94.4934L564.414 93.7483L564.111 93.0085L562.26 93.768ZM544.212 49.8L542.272 50.2851L542.307 50.4255L542.362 50.5595L544.212 49.8ZM543.924 48.936L541.963 49.3282L541.999 49.5083L542.068 49.6788L543.924 48.936ZM545.076 44.904L546.491 46.3182L546.517 46.292L546.542 46.2649L545.076 44.904ZM550.548 44.328L549.372 45.9455L549.405 45.9695L549.439 45.9921L550.548 44.328ZM552.18 46.248L554.035 45.5002L554.031 45.4895L554.027 45.4788L552.18 46.248ZM566.964 82.92L565.11 83.6678L566.942 88.2126L568.813 83.6837L566.964 82.92ZM582.036 46.44L580.198 45.6522L580.193 45.6642L580.188 45.6763L582.036 46.44ZM583.572 44.328L582.396 42.7105L582.359 42.7376L582.323 42.7663L583.572 44.328ZM589.141 44.904L587.675 46.2649L587.7 46.292L587.726 46.3182L589.141 44.904ZM590.1 49.608L591.947 50.3764L591.961 50.3436L591.973 50.3102L590.1 49.608ZM563.892 112.584L565.708 113.422L565.724 113.388L565.739 113.352L563.892 112.584ZM559.86 115.56V113.56C559.251 113.56 558.765 113.364 558.299 112.898L556.884 114.312L555.47 115.726C556.668 116.924 558.165 117.56 559.86 117.56V115.56ZM556.884 114.312L558.354 112.955C557.934 112.5 557.732 111.995 557.732 111.336H555.732H553.732C553.732 112.981 554.299 114.46 555.415 115.669L556.884 114.312ZM555.732 111.336H557.732C557.732 110.982 557.791 110.746 557.859 110.588L556.02 109.8L554.182 109.012C553.866 109.75 553.732 110.538 553.732 111.336H555.732ZM556.02 109.8L557.884 110.525L564.124 94.4934L562.26 93.768L560.397 93.0426L554.157 109.075L556.02 109.8ZM562.26 93.768L564.111 93.0085L546.063 49.0405L544.212 49.8L542.362 50.5595L560.41 94.5275L562.26 93.768ZM544.212 49.8L546.153 49.3149C546.061 48.9494 545.933 48.5733 545.781 48.1932L543.924 48.936L542.068 49.6788C542.172 49.9387 542.236 50.1386 542.272 50.2851L544.212 49.8ZM543.924 48.936L545.886 48.5438C545.847 48.3503 545.828 48.1617 545.828 47.976H543.828H541.828C541.828 48.4303 541.874 48.8816 541.963 49.3282L543.924 48.936ZM543.828 47.976H545.828C545.828 47.2706 546.048 46.7613 546.491 46.3182L545.076 44.904L543.662 43.4898C542.441 44.7107 541.828 46.2494 541.828 47.976H543.828ZM545.076 44.904L546.542 46.2649C546.998 45.7739 547.492 45.56 548.148 45.56V43.56V41.56C546.373 41.56 544.819 42.2421 543.611 43.5431L545.076 44.904ZM548.148 43.56V45.56C548.635 45.56 549.021 45.6898 549.372 45.9455L550.548 44.328L551.725 42.7105C550.668 41.9422 549.454 41.56 548.148 41.56V43.56ZM550.548 44.328L549.439 45.9921C549.916 46.31 550.183 46.653 550.334 47.0172L552.18 46.248L554.027 45.4788C553.538 44.307 552.717 43.37 551.658 42.6639L550.548 44.328ZM552.18 46.248L550.326 46.9958L565.11 83.6678L566.964 82.92L568.819 82.1722L554.035 45.5002L552.18 46.248ZM566.964 82.92L568.813 83.6837L583.885 47.2037L582.036 46.44L580.188 45.6763L565.116 82.1563L566.964 82.92ZM582.036 46.44L583.875 47.2278C584.154 46.5772 584.483 46.1605 584.822 45.8897L583.572 44.328L582.323 42.7663C581.382 43.5195 580.687 44.5108 580.198 45.6522L582.036 46.44ZM583.572 44.328L584.749 45.9455C585.076 45.7077 585.486 45.56 586.068 45.56V43.56V41.56C584.731 41.56 583.477 41.9243 582.396 42.7105L583.572 44.328ZM586.068 43.56V45.56C586.725 45.56 587.219 45.7739 587.675 46.2649L589.141 44.904L590.606 43.5431C589.398 42.2421 587.844 41.56 586.068 41.56V43.56ZM589.141 44.904L587.726 46.3182C588.169 46.7613 588.388 47.2706 588.388 47.976H590.388H592.388C592.388 46.2494 591.776 44.7107 590.555 43.4898L589.141 44.904ZM590.388 47.976H588.388C588.388 48.3251 588.331 48.6301 588.228 48.9057L590.1 49.608L591.973 50.3102C592.254 49.5619 592.388 48.7789 592.388 47.976H590.388ZM590.1 49.608L588.254 48.8396L562.046 111.816L563.892 112.584L565.739 113.352L591.947 50.3764L590.1 49.608ZM563.892 112.584L562.077 111.746C561.799 112.348 561.444 112.826 561.019 113.209L562.357 114.696L563.694 116.183C564.549 115.414 565.218 114.484 565.708 113.422L563.892 112.584ZM562.357 114.696L561.019 113.209C560.813 113.394 560.489 113.56 559.86 113.56V115.56V117.56C561.28 117.56 562.62 117.15 563.694 116.183L562.357 114.696Z" fill="white" mask="url(#path-1-outside-1_236_1963)"/>
<path d="M26.5204 123.447C24.2483 121.175 24.2483 117.53 26.4979 115.281L79.7238 62.0549C81.9734 59.8053 85.6403 59.8278 87.8899 62.0774C90.162 64.3495 90.162 67.9939 87.9124 70.2435L34.6865 123.469C32.4594 125.719 28.7925 125.697 26.5204 123.447Z" fill="#00AFFF"/>
<path d="M14.1249 94.6518C11.8528 92.3797 11.8528 88.7353 14.1024 86.4857L50.9511 49.6369C53.2007 47.3873 56.8676 47.4098 59.1172 49.6594C61.3893 51.9316 61.3893 55.5759 59.1397 57.8255L22.291 94.6743C20.0414 96.9239 16.3745 96.9239 14.1249 94.6518Z" fill="#00AFFF"/>
<path d="M1.70691 65.8566C-0.565206 63.5845 -0.565206 59.9401 1.68441 57.6905L22.1559 37.219C24.4055 34.9694 28.0724 34.9919 30.322 37.2415C32.5716 39.4911 32.5941 43.158 30.3445 45.4076L9.87301 65.8791C7.6234 68.1512 3.95652 68.1287 1.70691 65.8566Z" fill="#00AFFF"/>
<path d="M85.9324 1.6985C88.2045 3.97061 88.2045 7.61499 85.9549 9.86461L32.729 63.113C30.4794 65.3626 26.8125 65.3401 24.5629 63.0905C22.2908 60.8184 22.2908 57.174 24.5404 54.9244L77.7663 1.67601C80.0159 -0.57361 83.6828 -0.551114 85.9324 1.6985Z" fill="white"/>
<path d="M98.3506 30.4934C100.623 32.7655 100.623 36.4099 98.3731 38.6595L61.5244 75.5082C59.2748 77.7579 55.6079 77.7354 53.3583 75.4857C51.0862 73.2136 51.0862 69.5693 53.3358 67.3196L90.1845 30.4709C92.4341 28.2213 96.0785 28.2438 98.3506 30.4934Z" fill="white"/>
<path d="M110.768 59.2889C113.04 61.5611 113.04 65.2054 110.791 67.455L90.3193 87.9265C88.0697 90.1762 84.4028 90.1537 82.1532 87.9041C79.8811 85.6319 79.8811 81.9876 82.1307 79.7379L102.602 59.2664C104.852 57.0168 108.496 57.0168 110.768 59.2889Z" fill="white"/>
</svg>
